<svg
    xmlns="http://www.w3.org/2000/svg"
    fill="currentColor"
    viewBox="0 0 24 24"
    className="w-6 h-6"
  >
    <path d="M12 0C5.37 0 0 5.37 0 12a12 12 0 008.21 11.42c.6.11.82-.26.82-.58v-2.2c-3.34.72-4.04-1.61-4.04-1.61-.55-1.4-1.34-1.78-1.34-1.78-1.09-.74.08-.73.08-.73 1.2.08 1.83 1.23 1.83 1.23 1.07 1.82 2.8 1.29 3.48.98.11-.78.42-1.29.76-1.59-2.66-.3-5.47-1.34-5.47-5.95 0-1.31.47-2.38 1.23-3.22-.12-.3-.54-1.52.12-3.18 0 0 1-.32 3.3 1.23a11.5 11.5 0 016 0c2.3-1.55 3.3-1.23 3.3-1.23.66 1.66.24 2.88.12 3.18.77.84 1.23 1.91 1.23 3.22 0 4.62-2.81 5.65-5.49 5.95.43.37.81 1.1.81 2.22v3.29c0 .32.22.7.83.58A12 12 0 0024 12c0-6.63-5.37-12-12-12z" />
  </svg>